<?xml version="1.0" encoding="utf-8"?>
<svg viewBox="0 0 150 150" style="enable-background:new 0 0 122.4 122.88" xmlns="http://www.w3.org/2000/svg">
  <defs>
    <style type="text/css">.st0{fill-rule:evenodd;clip-rule:evenodd;}</style>
  </defs>
  <g transform="matrix(1.2207549810409546, 0, 0, 1.2207549810409546, 12.601893800553484, 6.104273024328734)" style="">
    <path class="a" d="M 95.725 11.257 C 84.315 -5.073 61.775 -9.913 45.485 0.467 L 16.865 18.707 C 9.036 23.614 3.638 31.594 1.995 40.687 C 1.632 42.713 1.448 44.768 1.445 46.827 C 1.463 52.424 2.835 57.934 5.445 62.887 C 2.998 66.604 1.328 70.777 0.535 75.157 C -1.104 84.424 1.059 93.962 6.535 101.617 C 17.945 117.947 40.535 122.787 56.775 112.407 L 85.365 94.167 C 93.19 89.253 98.575 81.263 100.195 72.167 C 100.563 70.144 100.747 68.092 100.745 66.037 C 100.738 60.45 99.383 54.948 96.795 49.997 C 99.241 46.282 100.911 42.112 101.705 37.737 C 102.06 35.712 102.24 33.662 102.245 31.607 C 102.247 24.315 99.967 17.207 95.725 11.277 L 95.725 11.257 Z M 95.725 11.257 Z" style="fill: rgb(255, 62, 0);"/>
    <path class="b" d="M 42.685 103.157 C 40.817 103.639 38.895 103.885 36.965 103.887 C 29.514 103.888 22.536 100.233 18.295 94.107 C 15.743 90.539 14.372 86.263 14.375 81.877 C 14.376 80.643 14.483 79.412 14.695 78.197 C 14.865 77.292 15.095 76.4 15.385 75.527 L 15.925 73.887 L 17.385 74.997 C 20.774 77.484 24.562 79.377 28.585 80.597 L 29.645 80.917 L 29.545 81.977 C 29.545 82.157 29.545 82.347 29.545 82.527 C 29.543 83.853 29.955 85.146 30.725 86.227 C 31.987 88.094 34.091 89.217 36.345 89.227 C 36.925 89.229 37.504 89.155 38.065 89.007 C 38.688 88.842 39.281 88.582 39.825 88.237 L 68.415 69.907 C 70.158 68.803 71.212 66.88 71.205 64.817 C 71.197 63.49 70.774 62.2 69.995 61.127 C 68.713 59.283 66.61 58.185 64.365 58.187 C 63.784 58.184 63.206 58.258 62.645 58.407 C 62.024 58.568 61.433 58.828 60.895 59.177 L 49.995 66.137 C 48.198 67.275 46.239 68.135 44.185 68.687 C 42.316 69.168 40.395 69.413 38.465 69.417 C 31.017 69.415 24.042 65.765 19.795 59.647 C 17.246 56.078 15.876 51.802 15.875 47.417 C 15.876 46.183 15.983 44.952 16.195 43.737 C 17.183 38.272 20.419 33.472 25.115 30.507 L 53.735 12.277 C 55.531 11.134 57.49 10.27 59.545 9.717 C 61.414 9.238 63.336 8.996 65.265 8.997 C 72.732 8.977 79.733 12.625 83.995 18.757 C 86.528 22.334 87.881 26.613 87.865 30.997 C 87.864 32.233 87.756 33.468 87.545 34.687 C 87.375 35.591 87.145 36.483 86.855 37.357 L 86.315 38.997 L 84.855 37.927 C 81.468 35.435 77.68 33.541 73.655 32.327 L 72.595 31.997 L 72.695 30.937 C 72.695 30.757 72.695 30.567 72.695 30.387 C 72.695 29.058 72.283 27.761 71.515 26.677 C 70.235 24.836 68.136 23.738 65.895 23.737 C 65.319 23.749 64.748 23.837 64.195 23.997 C 63.57 24.155 62.976 24.415 62.435 24.767 L 33.815 42.997 C 32.399 43.895 31.423 45.346 31.125 46.997 C 31.054 47.346 31.011 47.7 30.995 48.057 C 30.994 49.379 31.407 50.669 32.175 51.747 C 33.453 53.588 35.553 54.687 37.795 54.687 C 38.375 54.689 38.954 54.615 39.515 54.467 C 40.139 54.306 40.733 54.046 41.275 53.697 L 52.195 46.697 C 53.991 45.556 55.95 44.696 58.005 44.147 C 59.873 43.664 61.795 43.419 63.725 43.417 C 71.176 43.416 78.155 47.066 82.405 53.187 C 84.954 56.755 86.324 61.031 86.325 65.417 C 86.328 66.664 86.217 67.909 85.995 69.137 C 85.011 74.603 81.774 79.405 77.075 82.367 L 48.505 100.597 C 46.706 101.74 44.744 102.604 42.685 103.157 Z M 42.685 103.157 Z" style="fill: rgb(255, 255, 255);"/>
  </g>
  <g transform="matrix(0.5819719433784486, 0, 0, 0.5819719433784486, 76.79891433712578, 76.50037612022084)" style="">
    <path class="st0" d="M22.72,70.1c-8.37,1.51-16.51,4.35-20.93,15.44c-2.87,7.19-2.21,15.85,1.44,23.7 c9.88-30.07,44.48-12.31,22.22,13.6c16.29,0.81,26.61-10.58,28.23-25.95c0.77-7.26,1.4-11.17,2.99-14.3 c0.85-1.73,2.03-3.17,3.61-4.9c5.34-5.86,11.28-10.98,17.1-17.06c10.95-11.46,34.31-0.88,43.23-23.29 c2.87-7.19,2.21-15.85-1.44-23.7c-9.88,30.07-44.48,12.31-22.22-13.6C80.66-0.77,70.34,10.62,68.72,25.99 c-0.7,6.74,0.48,12.49-7,20.2c-5.27,5.27-10.84,10.61-16.25,15.77c-2.14,2.06-3.69,3.32-5.49,4.2c-3.24,1.62-7.26,2.1-17.17,3.87 L22.72,70.1L22.72,70.1z" style="fill: rgb(255, 62, 0); stroke: rgb(166, 40, 0); stroke-width: 4px;"/>
  </g>
</svg>